<svg width="60" height="60" viewBox="0 0 60 60" fill="none" xmlns="http://www.w3.org/2000/svg">
  <!-- Background circle with gradient -->
  <defs>
    <linearGradient id="flowiseGradient" x1="0%" y1="0%" x2="100%" y2="100%">
      <stop offset="0%" style="stop-color:#3B82F6;stop-opacity:1" />
      <stop offset="100%" style="stop-color:#1E40AF;stop-opacity:1" />
    </linearGradient>
  </defs>
  
  <!-- Main background -->
  <circle cx="30" cy="30" r="28" fill="url(#flowiseGradient)" stroke="#E5E7EB" stroke-width="2"/>
  
  <!-- Flow/AI representation -->
  <!-- Node 1 -->
  <circle cx="15" cy="20" r="4" fill="#FFFFFF" opacity="0.9"/>
  
  <!-- Node 2 -->
  <circle cx="30" cy="15" r="4" fill="#FFFFFF" opacity="0.9"/>
  
  <!-- Node 3 -->
  <circle cx="45" cy="20" r="4" fill="#FFFFFF" opacity="0.9"/>
  
  <!-- Node 4 (center processing) -->
  <circle cx="30" cy="30" r="5" fill="#FFFFFF"/>
  
  <!-- Node 5 -->
  <circle cx="15" cy="40" r="4" fill="#FFFFFF" opacity="0.9"/>
  
  <!-- Node 6 -->
  <circle cx="45" cy="40" r="4" fill="#FFFFFF" opacity="0.9"/>
  
  <!-- Node 7 (output) -->
  <circle cx="30" cy="45" r="4" fill="#FFFFFF" opacity="0.9"/>
  
  <!-- Connecting lines/flows -->
  <path d="M15,24 Q22,27 26,30" stroke="#FFFFFF" stroke-width="2" fill="none" opacity="0.7"/>
  <path d="M30,19 L30,25" stroke="#FFFFFF" stroke-width="2" fill="none" opacity="0.7"/>
  <path d="M45,24 Q38,27 34,30" stroke="#FFFFFF" stroke-width="2" fill="none" opacity="0.7"/>
  <path d="M26,30 Q22,37 19,40" stroke="#FFFFFF" stroke-width="2" fill="none" opacity="0.7"/>
  <path d="M34,30 Q38,37 41,40" stroke="#FFFFFF" stroke-width="2" fill="none" opacity="0.7"/>
  <path d="M30,35 L30,41" stroke="#FFFFFF" stroke-width="2" fill="none" opacity="0.7"/>
  
  <!-- AI/Bot indicator -->
  <text x="30" y="30" text-anchor="middle" font-family="Arial, sans-serif" font-size="8" fill="#1E40AF" font-weight="bold">AI</text>
</svg>
